<svg width="461" height="371" viewBox="0 0 461 371" fill="none" xmlns="http://www.w3.org/2000/svg">
<path d="M71 87.5V109H360C367.6 109 371.167 112.667 372 117L402 366.5C416.333 268.5 445.5 68 445.5 60C445.5 52 439.833 48.6667 437 48H329.5C322.7 48 320.333 52 320 54L299 78.5H80.5C75.3 78.5 72 84.5 71 87.5Z" fill="#890296"/>
<path d="M0 116L31 370.5H395C399.8 370.5 401.667 366.833 402 365C392.667 285 373.5 123.2 371.5 116C369.5 108.8 363.667 106.333 361 106C282.879 106.112 151.57 106.255 73 106.214C35.0713 106.193 9.43252 106.13 8 106C3.6 105.6 0.833333 112.5 0 116Z" fill="#AC31BF"/>
<path d="M124.585 187.314L130.436 193.526C129.289 195.942 126.512 201.258 124.585 203.19C122.175 205.606 129.404 209.403 130.436 204.916C131.262 201.327 135.6 198.819 137.665 198.013C138.698 199.624 141.933 203.259 146.614 204.916C151.296 206.573 151.319 201.004 150.745 198.013C145.811 196.518 137.734 192.284 144.893 187.314C152.053 182.344 145.582 182.021 141.451 182.482L135.944 187.314C134.108 184.898 129.266 180.549 124.585 182.482C119.904 184.414 122.634 186.508 124.585 187.314Z" fill="#252525"/>
<path d="M218.496 187.101L224.145 193.065C223.038 195.385 220.357 200.487 218.496 202.343C216.169 204.662 223.149 208.307 224.145 203.999C224.943 200.554 229.131 198.146 231.125 197.373C232.122 198.919 235.246 202.409 239.766 203.999C244.285 205.59 244.308 200.244 243.754 197.373C238.99 195.937 231.191 191.872 238.104 187.101C245.017 182.33 238.769 182.021 234.78 182.462L229.463 187.101C227.69 184.782 223.015 180.607 218.496 182.462C213.976 184.318 216.612 186.328 218.496 187.101Z" fill="#252525"/>
<path d="M188.905 232.055C168.505 232.855 161.742 241.222 160.409 247.555C158.409 252.722 157.409 260.004 165.409 250.404C175.409 238.404 184.909 241.055 195.409 243.555C205.909 246.055 202.909 247.555 213.909 252.055C222.709 255.655 222.072 247.888 221.905 243.555C219.405 239.388 209.305 231.255 188.905 232.055Z" fill="#252525"/>
<path d="M357 85.4683L344 98.4683H378.5C400.9 112.868 427.167 104.468 437.5 98.4683C447.167 91.9683 465 72.3683 459 45.9683C453 19.5683 424.833 9.63493 411.5 7.96827C404.667 5.8016 385.4 5.86827 363 23.4683C340.6 41.0683 349.667 72.1349 357 85.4683Z" fill="#FCCCFF"/>
<path d="M400.461 73.6147H406.154V79.3073H400.461V73.6147ZM406.154 73.6147H411.846V79.3073H406.154V73.6147ZM406.154 79.3073H411.846V85H406.154V79.3073ZM400.461 79.3073H406.154V85H400.461V79.3073ZM400.461 62.2293H406.154V67.922H400.461V62.2293ZM406.154 62.2293H411.846V67.922H406.154V62.2293ZM406.154 56.5367H411.846V62.2293H406.154V56.5367ZM400.461 56.5367H406.154V62.2293H400.461V56.5367ZM400.461 50.844H406.154V56.5367H400.461V50.844ZM406.154 50.844H411.846V56.5367H406.154V50.844ZM411.846 50.844H417.539V56.5367H411.846V50.844ZM406.154 45.1513H411.846V50.844H406.154V45.1513ZM411.846 45.1513H417.539V50.844H411.846V45.1513ZM417.539 45.1513H423.232V50.844H417.539V45.1513ZM417.539 39.4587H423.232V45.1513H417.539V39.4587ZM411.846 39.4587H417.539V45.1513H411.846V39.4587ZM411.846 33.766H417.539V39.4587H411.846V33.766ZM417.539 33.766H423.232V39.4587H417.539V33.766ZM411.846 28.0733H417.539V33.766H411.846V28.0733ZM406.154 28.0733H411.846V33.766H406.154V28.0733ZM406.154 33.766H411.846V39.4587H406.154V33.766ZM400.461 33.766H406.154V39.4587H400.461V33.766ZM394.768 33.766H400.461V39.4587H394.768V33.766ZM394.768 28.0733H400.461V33.766H394.768V28.0733ZM400.461 28.0733H406.154V33.766H400.461V28.0733ZM389.076 33.766H394.768V39.4587H389.076V33.766ZM389.076 39.4587H394.768V45.1513H389.076V39.4587ZM394.768 39.4587H400.461V45.1513H394.768V39.4587Z" fill="#1E1E1E"/>
</svg>
