<svg width="596" height="575" viewBox="0 0 596 575" fill="none" xmlns="http://www.w3.org/2000/svg">
<path d="M111.35 143.863C46.7749 208.03 74.819 345.177 74.819 345.177C74.819 345.177 -14.2786 392.178 3.29566 425.283C20.8699 458.388 128.767 379.917 128.767 379.917C128.767 379.917 158.195 479.232 212.144 458.388C266.092 437.544 222.769 379.917 222.769 379.917C222.769 379.917 304.511 477.597 347.833 458.388C391.155 439.179 274.675 329.646 274.675 329.646C274.675 329.646 274.675 199.447 255.623 163.073C236.571 126.698 175.925 79.6969 111.35 143.863Z" fill="#D2CFCF"/>
<path d="M65.51 333.561C64.2098 325.986 63.3138 315.907 63.0093 308.241C62.9094 305.815 63.3909 306.997 63.3463 305.324C63.2732 302.188 62.8917 299.027 62.922 295.91C62.9334 294.85 63.6126 296.136 63.6111 295.026C63.6035 288.879 63.3107 283.21 63.4454 276.988C64.2243 246.714 67.7626 216.485 79.064 187.462C82.7835 177.901 88.8777 166.954 94.725 158.078C95.4043 157.038 94.5393 157.34 94.6367 157.12C96.2237 153.675 96.4065 155.321 97.9622 153.465C101.368 149.461 105.103 145.365 109.03 141.529C112.357 138.278 115.51 135.35 118.713 132.551C121.651 130.022 117.941 131.642 121.386 129.66C121.631 129.519 121.189 130.599 122.09 129.969C124.147 128.509 127.7 125.822 129.388 124.768C132.51 122.815 132.921 122.554 135.973 120.777C140.036 118.446 145.224 116.236 149.97 114.333C150.969 113.931 149.423 113.867 151.008 113.185C152.628 112.464 157.053 111.171 158.629 110.95C160.192 110.704 159.647 111.32 159.942 111.357C162.297 111.662 167.312 109.575 168.008 109.495C180.467 107.419 191.503 109.524 202.543 113.21C210.985 116.026 219.524 120.355 226.366 125.282C234.494 131.164 240.482 137.265 246.748 144.646C247.407 145.437 247.176 144.062 247.98 145.033C252.144 150.092 255.845 155.54 258.842 161.387C262.006 167.684 263.794 174.23 265.234 180.781C265.502 182.047 264.507 180.578 264.738 181.852C266.242 189.75 267.119 202.286 270.398 206.573C271.095 211.971 271.795 218.414 271.797 223.268C271.797 226.398 270.811 223.471 271.498 227.214C271.651 228.059 272.113 226.89 272.297 228.164C273.072 233.543 273.419 239.446 274.149 244.759C274.299 245.839 274.794 245.501 274.912 245.802C275.879 248.345 274.94 252.729 274.914 253.683C274.735 260.875 275.313 266.089 275.646 272.741C275.721 274.273 276.326 272.414 276.424 273.907C276.917 281.61 277.184 289.641 277.116 297.209C277.097 298.855 276.454 297.364 276.414 298.149C276.25 301.823 277.391 302.358 277.241 305.903C277.209 306.623 276.689 306.23 276.636 306.363C275.807 308.378 277.093 310.177 277.132 310.704C277.648 317.378 276.413 321.599 276.638 328.026C276.665 328.765 277.304 327.03 277.338 329.216C277.339 329.225 277.34 329.437 277.341 329.509C277.342 329.599 277.343 329.645 277.344 329.646L276.503 327.701C286.989 337.464 297.342 348.356 306.573 359.173C307.994 360.843 306.58 360.016 306.629 360.158C307.456 362.446 309.379 362.712 309.904 363.224C313.975 367.232 316.684 371.944 320.348 373.948C335.239 392.849 352.214 411.295 358.136 435.737C358.195 436.052 357.464 435.641 357.582 436.263C358.56 443.688 359.296 442.047 359.905 447.603C360.06 449.192 357.08 452.663 356.729 452.788C355.719 453.706 355.647 452.076 355.359 452.401C352.967 454.668 355.691 456.563 351.42 459.494C351.287 459.569 351.55 458.756 351.17 458.922C350.315 459.29 349.519 459.795 348.624 460.171C348.313 460.301 347.996 460.412 347.668 460.487C344.86 461.054 343.695 459.976 339.817 461.423C339.3 461.559 340.365 463.347 336.063 463.443C334.319 463.61 326.97 462.822 324.975 462.111C323.012 461.54 324.508 461.319 324.367 461.262C319.344 459.198 321.338 459.37 319.191 457.558C317.079 455.682 316.886 458.331 315.743 458.214C314.544 458.088 311.222 456.021 310.412 455.395C309.615 454.795 310.866 454.986 310.131 454.514C305.436 451.387 307.349 454.586 305.483 454.111C301.065 452.913 299.008 449.488 295.725 447.215C294.827 446.589 295.35 447.435 294.502 446.946C291.189 445.003 289.587 443.203 285.731 441.125C285.099 440.788 281.544 439.619 280.235 437.554C280.051 437.26 281.07 437.44 279.835 436.362C277.984 434.75 274.619 431.94 272.495 430.388C270.925 429.243 272.135 431.267 270.413 429.518C269.652 428.739 271.484 429.675 270.034 428.241C268.596 426.829 264.663 423.45 263.192 422.15C261.708 420.849 262.118 422.011 261.972 421.935C261.087 421.46 258.131 419.162 257.871 418.916C245.4 407.51 235.412 395.757 224.29 383.599C223.5 382.73 223.54 383.732 223.415 383.604C220.639 380.747 223.101 381.599 222.648 380.018L222.895 379.822C222.846 379.823 222.986 380.078 222.985 380.138C223.019 380.245 223.077 380.382 223.174 380.57C223.943 379.464 224.87 381.093 226.64 383.615C227.499 384.847 227.485 383.901 227.599 383.987C229.424 385.493 229.374 387.365 229.398 387.804C229.516 389.472 231.026 390.455 231.058 391.569C231.086 392.675 229.403 390.966 230.765 393.605C231.553 394.159 231.613 391.614 232.81 393.579C237.638 400.844 241.326 417.087 240.536 424.167C240.17 431.176 239.386 433.46 237.836 437.239C234.419 443.819 236.333 441.763 233.973 445.871C231.19 449.83 231.082 446.508 230.304 446.713C229.545 446.84 229.417 447.659 228.666 448.02C227.921 448.367 228.934 446.989 227.529 448.159C226.255 449.305 222.71 452.848 222.348 453.58C221.69 455.17 224.239 455.038 219.71 457.102C219.443 457.216 220.008 456.276 219.001 456.736C216.782 457.743 214.83 458.51 212.509 459.333C206.389 461.509 199.711 462.479 193.448 461.48C192.29 461.29 193.407 460.782 192.738 460.66C185.91 459.025 188.204 460.469 183.996 460.397C185.384 459.151 183.58 457.769 178.985 455.29C176.234 453.715 176.367 454.562 174.348 453.823C173.734 453.602 172.151 451.862 171.642 451.868C169.926 451.844 170.821 454.245 166.785 450.167C166.616 449.985 167.59 450.072 166.977 449.479C163.087 445.549 161.836 445.849 157.803 441.383C154.637 437.868 150.361 430.671 147.735 426.086C149.296 425.246 146.406 421.228 144.367 420.054C142.734 417.035 140.954 413.761 139.67 410.746C139.215 409.682 140.013 410.139 139.999 409.983C139.814 407.598 138.144 406.833 137.776 406.149C134.014 399.025 132.443 392.667 129.08 385.747C128.959 385.49 127.653 385.536 127.852 383.267C127.863 383.095 129.189 385.33 128.108 381.889C128.027 381.626 127.99 381.489 127.875 381.095C127.83 380.935 127.791 380.792 127.759 380.67C127.752 380.629 127.636 380.227 127.65 380.248L129.452 380.859C126.339 382.916 121.589 385.704 118.32 388.503C117.409 389.287 115.46 391.808 112.942 392.525C112.602 392.622 112.715 392.122 112.199 392.225C110.611 392.515 110.63 394 108.524 394.1C106.44 394.182 102.919 395.512 99.078 398.772C98.9507 398.876 98.4589 400.354 97.1313 401.153C94.9784 402.45 91.8317 404.113 89.5659 405.46C88.4774 406.108 89.4887 406.226 89.3051 406.348C82.1961 410.925 76.6808 413.406 68.5357 417.343C67.0494 418.062 63.1585 420.951 59.9451 421.716C56.4268 422.53 58.4994 418.331 51.4467 422.21C48.6653 423.702 46.1434 428.92 39.9641 428.882C29.4322 432.562 18.0461 435.102 8.0867 430.066C7.67975 429.849 5.69965 429.684 4.83586 428.674C3.77675 427.445 3.58674 426.388 3.16026 425.355C3.10033 425.205 3.03633 425.056 2.96556 424.905C0.664663 420.048 0.104678 414.802 1.55557 409.754C2.14946 407.828 2.3956 408.688 3.25188 406.508C4.15274 404.395 4.24584 402.621 6.14792 400.087C7.63653 398.137 10.1272 396.988 12.1491 394.697C11.1541 393.753 12.4777 392.052 14.835 388.929C15.294 388.324 14.393 388.598 14.5929 388.295C15.3783 387.077 16.5888 386.388 17.3691 385.218C17.5595 384.934 17.2417 384.588 17.3765 384.341C18.5158 382.203 22.0799 380.343 22.6805 380.06C25.0134 378.896 25.492 377.679 27.1366 376.641C28.7801 375.616 26.81 377.722 28.629 376.413C32.3881 373.709 37.0491 370.022 40.8609 367.298C42.3916 366.199 40.9834 366.443 41.1939 366.274C44.2461 363.877 47.8467 362.232 48.9714 359.98C52.9775 361.199 50.7437 358.395 55.7788 355.944C56.1779 355.754 57.468 356.742 56.1618 357.838C54.87 358.925 52.4596 359.917 50.7524 361.475C50.3461 361.839 48.5184 364.801 48.2397 365.103C45.8801 367.549 44.1789 365.977 43.9637 365.971C41.5376 366.019 39.3193 369.55 38.5876 370.238C35.1819 373.392 31.922 375.575 29.1996 378.321C27.4222 380.122 28.2362 381.401 26.7384 382.666C21.8764 386.869 18.6988 387.054 15.9885 392.787C15.4432 394.033 17.4802 394.035 13.6253 396.795C13.399 396.93 10.3689 399.002 9.98379 401.029C9.92989 401.287 10.3355 401.536 10.1998 401.827C9.3136 403.752 8.29737 404.791 7.54841 406.872C6.79668 408.984 6.25707 411.473 5.79751 413.696C5.49274 415.031 4.62918 416.775 4.48852 417.496C4.01772 419.526 5.62583 421.24 5.40176 422.58C5.25894 423.945 3.37959 422.431 3.995 424.912C4.05738 425.13 4.14398 425.375 4.26219 425.649C5.39542 425.135 6.61955 424.697 7.74122 424.136C10.5994 429.001 18.4254 430.187 26.0528 428.864C26.9891 428.705 25.9229 428.208 26.9219 428.012C31.2098 427.138 35.0375 426.56 39.4693 424.88C42.8378 423.589 46.3303 421.484 49.7756 419.83C52.4721 420.242 57.5244 417.448 61.3138 415.722C62.6426 415.121 62.7228 415.501 63.7115 415.148C67.4405 413.783 65.2178 413.497 66.0883 412.835C69.789 409.976 71.473 412.295 76.2474 409.605C76.5026 409.466 78.874 406.416 79.2429 406.095C81.6244 404.039 79.9442 406.303 81.6833 405.439C84.8767 403.841 87.1809 402.91 90.5231 400.387C91.4596 399.672 93.5316 397.313 95.8717 396.718C96.1813 396.638 96.3006 397.151 96.5246 397.047C100.699 395.022 99.8306 393.704 101.8 391.824C103.675 390.003 107.643 388.709 108.46 388.543C110.633 388.081 107.321 389.703 107.246 389.843C106.636 391.364 108.939 389.675 110.878 388.487C112.023 389.575 114.527 387.796 112.844 387.273C112.664 387.215 111.306 388.289 110.878 388.487C111.707 386.132 114.382 384.12 118.337 383.121C120.139 382.682 119.231 384.261 123.493 380.952C125.349 379.493 124.108 379.074 125.604 377.656C125.794 377.485 125.958 377.337 126.091 377.213C126.173 377.14 126.165 377.133 126.315 377.013C126.46 376.897 126.531 376.834 126.522 376.83L130.958 373.674L132.427 378.832C134.047 382.909 135.275 388.68 137.097 392.879C137.842 394.597 137.713 392.711 138.228 393.84C139.586 396.79 140.363 399.72 141.907 402.594C142.05 402.859 142.298 401.941 142.732 402.876C146.056 409.95 148.787 416.105 152.999 423.005C155.014 426.355 159.212 431.864 161.667 434.979C165.794 440.453 171.24 447.028 176.138 450.071C179.299 452.03 178.96 451.018 180.499 451.454C183.384 452.287 187.636 455.361 188.326 455.718C188.344 455.76 185.359 454.908 186.829 455.734C187.556 456.658 188.298 455.71 188.326 455.718C188.698 456.116 194.731 457.38 195.966 457.158C196.631 457.121 196.28 456.533 196.621 456.521C201.25 456.343 205.762 455.276 210.253 453.495C213.74 452.109 216.894 450.622 219.957 448.79C220.088 448.719 220.248 449.381 220.553 449.205C224.797 446.714 226.515 443.951 228.411 440.719C230.261 437.449 231.434 434.975 233.183 433.149C233.979 430.389 234.98 426.256 235.243 423.706C235.527 421.162 234.189 420.876 234.163 420.666C232.757 413.955 232.358 409.866 229.784 402.832C228.579 399.494 225.229 393.148 223.109 389.936C221.463 387.384 220.661 385.589 218.94 383.476C218.689 383.17 218.466 383.814 218.38 383.731C218.304 383.662 218.243 383.611 218.194 383.572C218.177 383.563 218.129 383.512 218.096 383.48C218.064 383.45 218.051 383.445 218.055 383.461L227.292 376.132C229.082 377.632 227.42 377.537 227.6 378.1C228.546 380.548 229.153 381.969 232.282 384.828C233.049 385.539 236.306 386.207 237.665 387.507C239.284 389.039 238.176 388.882 239.975 390.554C240.124 390.692 240.441 390.398 241.406 391.447C246.055 396.487 251.148 402.004 256.325 406.919C257.027 407.587 256.605 406.23 257.63 407.188C262.448 411.69 267.781 416.579 272.422 420.972C273.572 422.062 272.506 421.784 272.674 422.116C273.708 424.138 276.817 425.079 277.21 425.367C286.642 432.255 293.171 438.534 303.529 444.033C304.122 444.362 308.947 445.517 310.369 447.488C310.471 447.626 311.823 449.623 313.919 449.673C314.043 449.671 313.093 448.588 315.165 449.57C317.214 450.538 320.738 451.478 323.475 452.96C324.333 453.428 326.287 455.219 329.28 454.766C329.522 454.783 333.872 453.176 335.206 454.571C335.42 454.785 335.268 456.469 338.401 455.417C338.976 455.195 337.87 454.988 339.392 454.572C341.158 454.062 343.35 453.703 345.27 452.607C345.836 452.286 346.313 451.922 346.678 451.518C347.011 451.19 347.582 449.525 348.743 449.297C348.947 449.238 349.146 449.838 349.562 449.38C351.517 447.274 351.544 443.09 350.884 438.507C350.642 436.871 351.655 437.466 351.403 435.683C351.175 433.937 350.048 430.247 348.881 428.584C347.719 426.907 347.375 429.369 346.071 426.807C340.082 415.427 332.975 404.098 324.819 393.391C323.597 391.805 324.251 393.404 322.411 391.093C315.691 382.558 302.871 368.691 297.096 361.092C292.467 354.958 299.551 361.61 295.74 357.066C293.924 354.907 290.697 353.783 290.182 353.317C285.221 348.879 282.524 345.169 278.132 341.109C277.183 340.232 277.641 341.569 276.836 340.817C274.677 338.819 272.276 336.206 270.295 334.304L268.252 332.34L268.281 329.646C268.284 329.18 268.282 328.904 268.273 328.288C268.241 326.951 267.76 326.893 267.787 325.68C267.841 322.29 268.001 319.262 268.394 315.975C268.429 315.675 269.063 317.677 269.041 315.186C269.002 311.117 269.328 306.02 268.733 301.392C268.555 300.032 267.454 299.897 268.119 296.973C268.256 296.34 269.605 297.128 268.345 293.65C268.138 293.061 266.385 287.259 267.252 284.416C267.481 283.662 268.474 281.66 268.227 279.996C268.19 279.774 267.642 280.695 267.522 279.335C267.103 274.497 266.895 269.364 266.412 264.407C266.281 263.079 265.792 265.099 265.615 263.117C265.128 257.657 264.805 250.86 264.561 245.514C264.472 243.549 265.087 244.862 265.13 244.715C265.834 242.345 264.511 241.088 264.374 240.335C263.537 235.635 263.754 231.988 263.144 227.653C262.976 226.461 262.494 227.37 262.418 227.138C261.651 224.727 262.881 226.459 262.821 224.874C262.653 220.439 262.004 215.556 261.318 211.181C261.061 209.554 260.658 211.478 260.434 210.021C259.097 201.467 257.629 192.621 256.03 184.504C255.73 182.99 256.461 183.808 256.498 183.468C256.773 181.131 254.774 178.19 254.473 177.59C252.997 174.43 253.043 173.168 251.905 170.481C251.297 169.083 250.51 167.415 249.794 166.125C243.599 154.634 233.288 142.793 223.841 135.417C209.908 124.609 196.739 118.661 180.13 117.94C179.086 117.914 180.115 118.629 179.221 118.62C167.616 118.499 156.17 121.135 145.604 126.616C144.729 127.072 146.288 127.01 144.9 127.767C142.157 129.27 138.583 131.333 135.784 132.949C134.392 133.757 135.881 132.092 134.478 132.925C131.252 134.846 127.882 137.34 125.033 139.852C123.792 140.951 126.132 139.851 124.491 141.244C121.587 143.737 119.032 146.127 116.301 148.845C108.71 156.417 102.296 165.084 96.4468 174.553C95.9147 175.419 94.2907 175.583 93.5329 177.663C93.7935 177.978 94.1913 178.167 94.5171 178.409C85.1453 197.739 79.5646 218.913 76.8668 240.787C76.7555 241.709 77.6506 240.201 77.4416 241.982C76.254 252.317 75.8615 262.43 75.0153 273.119C74.9359 274.177 73.6754 273.62 73.854 276.742C73.8798 277.316 74.0754 282.061 74.3764 283.248C74.4205 283.411 74.9918 282.548 75.0353 284.055C75.2844 292.892 75.6581 302.157 76.0804 310.979C76.1523 312.449 75.3906 310.947 75.4371 311.992C75.7522 319.192 77.1602 327.007 77.6241 333.893C77.9496 338.53 76.6118 336.92 75.9731 339.592C75.93 339.789 76.0273 340.623 76.0448 341.311C76.096 342.194 76.0691 342.934 75.7746 343.042C74.3112 343.684 72.3954 342.669 70.8649 343.515C70.7824 343.561 70.7881 343.833 70.8155 344.133C70.8227 344.248 70.8645 344.528 70.8954 344.745C70.927 344.967 70.9533 345.158 70.9676 345.306C70.9749 345.381 70.9792 345.445 70.9803 345.5C70.9895 345.597 71.0084 345.749 71.0074 345.81C71.0092 345.951 70.9762 345.957 70.9326 345.971C70.8873 345.976 70.8365 346.013 70.7496 345.951C70.7053 345.915 70.6503 345.846 70.571 345.674C70.4942 345.514 70.4426 345.505 70.3624 345.374C70.3412 345.341 70.2797 345.174 70.1757 344.836C70.0564 344.416 69.9604 344.174 69.8292 343.775C69.7019 343.398 69.5513 342.925 69.4121 342.53C69.2881 342.223 69.1662 341.945 69.0653 341.79C68.7846 341.351 68.3131 342.324 67.8889 341.379C67.4453 340.308 67.8138 339.314 67.241 337.629C66.6636 335.902 66.0953 336.983 65.51 333.561ZM235.103 411.954C235.077 409.388 232.861 409.64 234.022 412.048C234.079 412.165 235.104 412.084 235.103 411.954ZM18.3978 431.097C21.5833 432.166 23.6473 430.445 21.4396 429.868C19.2151 429.239 17.5211 430.748 18.3978 431.097ZM3.70449 409.285C1.961 412.777 4.98149 413.787 5.26244 410.087C5.29056 409.867 3.80985 409.098 3.70449 409.285ZM73.978 328.28C73.9543 328.334 74.2069 330.412 74.2416 330.442C75.0829 331.444 74.5793 327.312 73.978 328.28ZM23.0973 381.852C21.9126 382.348 19.6908 385.161 21.1545 384.483C22.3207 383.932 24.5659 381.219 23.0973 381.852ZM296.204 446.248C296.221 446.299 297.473 447.112 297.545 446.937C297.771 446.379 295.927 445.423 296.204 446.248ZM71.047 348.159C63.4742 352.338 57.652 352.922 65.9146 348.333C67.4347 347.503 63.1738 350.897 65.1755 349.989C68.8508 348.324 70.3186 345.612 74.3878 344.405C75.0523 344.214 71.5102 347.896 71.0361 348.169C71.0397 348.166 71.0434 348.162 71.047 348.159ZM237.309 409.895C237.331 409.834 236.8 407.846 236.749 407.803C235.778 406.937 236.846 410.914 237.309 409.895ZM355.908 430.464C355.941 430.256 354.222 425.837 354.05 425.675C352.073 423.831 355.583 432.811 355.908 430.464ZM147.732 425.99C145.941 424.426 144.476 422.067 144.371 420.063C145.427 422.049 146.58 424.035 147.732 425.99Z" fill="white"/>
<ellipse cx="141.595" cy="197.813" rx="13.0785" ry="12.2611" fill="black"/>
<ellipse cx="221.701" cy="196.995" rx="13.0785" ry="12.2611" fill="black"/>
<path d="M180.8 245.757C148.732 245.569 133.592 275.761 130.031 290.88C136.732 283.694 156.731 277.882 181.698 271.447C206.665 265.013 232.966 275.696 243.173 286.926C235.744 273.281 212.869 245.945 180.8 245.757Z" fill="#E03B3B"/>
<path fill-rule="evenodd" clip-rule="evenodd" d="M300.591 256.581C321.299 262.848 315.304 298.187 354.54 235.737C329.473 215.983 283.589 163.642 300.591 112.309C317.593 60.9753 370.343 17.8979 394.593 2.77584C421.84 -3.49095 492.028 -3.19124 554.805 48.142C617.582 99.4752 595.675 194.594 565.431 235.737C535.187 249.633 443.147 273.256 408.489 256.581C370.888 289.141 342.442 303.991 300.591 256.581Z" fill="#6D91D3"/>
<path d="M365.651 161.373C365.259 161.373 364.278 160.834 362.708 159.755C361.237 158.577 359.619 157.204 357.853 155.635C356.087 154.065 354.518 152.545 353.145 151.074C351.87 149.504 351.232 148.327 351.232 147.542C351.232 146.856 351.919 144.943 353.292 141.804C354.665 138.665 356.48 134.84 358.736 130.328C360.992 125.718 363.395 120.96 365.945 116.056C368.594 111.053 371.144 106.345 373.596 101.931C376.147 97.5171 378.354 93.8878 380.217 91.0432H391.399L401.257 102.814C401.061 105.855 400.816 109.484 400.522 113.702C400.227 117.822 399.982 121.941 399.786 126.061C399.688 130.181 399.639 133.81 399.639 136.949V149.308H408.761L415.088 159.607L413.911 161.373H399.639C399.639 165.1 399.492 168.092 399.197 170.348C399.001 172.604 398.903 174.419 398.903 175.792C398.903 176.773 399.394 177.656 400.375 178.441C401.454 179.127 403.072 180.059 405.23 181.236L403.317 185.503C396.843 183.247 392.086 181.236 389.045 179.47C386.103 177.607 384.631 176.086 384.631 174.909C384.631 173.536 384.778 172.016 385.073 170.348C385.465 168.681 385.71 165.689 385.808 161.373H365.651ZM385.808 136.949C385.808 132.927 385.857 128.857 385.955 124.737C386.152 120.519 386.348 116.644 386.544 113.113C386.74 109.582 386.887 106.688 386.985 104.432C385.22 108.258 383.209 112.427 380.953 116.939C378.795 121.353 376.686 125.718 374.626 130.034C372.566 134.251 370.752 138.077 369.182 141.51C367.613 144.943 366.534 147.542 365.945 149.308H385.808V136.949ZM450.091 183.737C447.442 183.737 444.353 183.1 440.821 181.825C437.388 180.451 434.004 178.735 430.669 176.675C427.432 174.615 424.735 172.506 422.577 170.348C420.419 168.092 419.34 166.032 419.34 164.169C419.34 161.618 419.487 158.381 419.781 154.458C420.076 150.436 420.223 146.218 420.223 141.804V111.201C420.223 103.942 421.988 98.5961 425.519 95.163C429.051 91.7298 434.495 90.0133 441.851 90.0133C444.598 90.0133 447.639 90.8961 450.974 92.6617C454.407 94.4273 457.693 96.6833 460.831 99.4298C464.068 102.176 466.717 104.972 468.777 107.816C470.837 110.563 471.867 112.966 471.867 115.026C471.867 116.988 471.817 119.734 471.719 123.265C471.719 126.797 471.67 130.72 471.572 135.036C471.474 139.352 471.376 143.717 471.278 148.131C471.278 152.447 471.278 156.37 471.278 159.902C471.278 167.651 469.463 173.585 465.834 177.705C462.303 181.726 457.055 183.737 450.091 183.737ZM439.939 170.348C445.824 170.348 450.042 168.73 452.592 165.493C455.24 162.256 456.565 156.91 456.565 149.455C456.565 148.082 456.565 146.022 456.565 143.276C456.565 140.529 456.565 137.488 456.565 134.153C456.663 130.818 456.712 127.483 456.712 124.148C456.712 120.813 456.712 117.871 456.712 115.32C456.712 112.672 456.712 110.71 456.712 109.435C456.712 107.375 456.221 105.904 455.24 105.021C454.26 104.138 452.592 103.697 450.238 103.697C444.156 103.697 440.135 104.825 438.173 107.081C436.211 109.239 435.23 112.623 435.23 117.233V148.131C435.23 152.839 435.083 156.714 434.789 159.755C434.593 162.795 434.495 164.904 434.495 166.081C434.495 168.926 436.309 170.348 439.939 170.348ZM493.387 161.373C492.995 161.373 492.014 160.834 490.444 159.755C488.973 158.577 487.355 157.204 485.589 155.635C483.823 154.065 482.254 152.545 480.881 151.074C479.606 149.504 478.968 148.327 478.968 147.542C478.968 146.856 479.655 144.943 481.028 141.804C482.401 138.665 484.216 134.84 486.472 130.328C488.728 125.718 491.131 120.96 493.681 116.056C496.33 111.053 498.88 106.345 501.332 101.931C503.883 97.5171 506.09 93.8878 507.953 91.0432H519.135L528.993 102.814C528.797 105.855 528.552 109.484 528.258 113.702C527.963 117.822 527.718 121.941 527.522 126.061C527.424 130.181 527.375 133.81 527.375 136.949V149.308H536.497L542.824 159.607L541.647 161.373H527.375C527.375 165.1 527.228 168.092 526.934 170.348C526.737 172.604 526.639 174.419 526.639 175.792C526.639 176.773 527.13 177.656 528.111 178.441C529.19 179.127 530.808 180.059 532.966 181.236L531.053 185.503C524.579 183.247 519.822 181.236 516.781 179.47C513.839 177.607 512.367 176.086 512.367 174.909C512.367 173.536 512.514 172.016 512.809 170.348C513.201 168.681 513.446 165.689 513.544 161.373H493.387ZM513.544 136.949C513.544 132.927 513.593 128.857 513.691 124.737C513.888 120.519 514.084 116.644 514.28 113.113C514.476 109.582 514.623 106.688 514.721 104.432C512.956 108.258 510.945 112.427 508.689 116.939C506.531 121.353 504.422 125.718 502.362 130.034C500.302 134.251 498.488 138.077 496.918 141.51C495.349 144.943 494.27 147.542 493.681 149.308H513.544V136.949Z" fill="white"/>
<path d="M1.29068 489.073H6.98335V494.766H1.29068V489.073ZM6.98335 489.073H12.676V494.766H6.98335V489.073ZM12.676 489.073H18.3687V494.766H12.676V489.073ZM18.3687 489.073H24.0613V494.766H18.3687V489.073ZM24.0613 489.073H29.754V494.766H24.0613V489.073ZM29.754 489.073H35.4467V494.766H29.754V489.073ZM29.754 494.766H35.4467V500.459H29.754V494.766ZM24.0613 494.766H29.754V500.459H24.0613V494.766ZM18.3687 494.766H24.0613V500.459H18.3687V494.766ZM12.676 494.766H18.3687V500.459H12.676V494.766ZM6.98335 494.766H12.676V500.459H6.98335V494.766ZM1.29068 494.766H6.98335V500.459H1.29068V494.766ZM35.4467 494.766H41.1393V500.459H35.4467V494.766ZM29.754 500.459H35.4467V506.151H29.754V500.459ZM35.4467 500.459H41.1393V506.151H35.4467V500.459ZM35.4467 506.151H41.1393V511.844H35.4467V506.151ZM35.4467 511.844H41.1393V517.537H35.4467V511.844ZM29.754 511.844H35.4467V517.537H29.754V511.844ZM29.754 506.151H35.4467V511.844H29.754V506.151ZM29.754 517.537H35.4467V523.229H29.754V517.537ZM29.754 523.229H35.4467V528.922H29.754V523.229ZM24.0613 523.229H29.754V528.922H24.0613V523.229ZM24.0613 517.537H29.754V523.229H24.0613V517.537ZM18.3687 517.537H24.0613V523.229H18.3687V517.537ZM18.3687 523.229H24.0613V528.922H18.3687V523.229ZM12.676 523.229H18.3687V528.922H12.676V523.229ZM12.676 517.537H18.3687V523.229H12.676V517.537ZM6.98335 517.537H12.676V523.229H6.98335V517.537ZM1.29068 517.537H6.98335V523.229H1.29068V517.537ZM1.29068 523.229H6.98335V528.922H1.29068V523.229ZM6.98335 523.229H12.676V528.922H6.98335V523.229ZM1.29068 500.459H6.98335V506.151H1.29068V500.459ZM6.98335 500.459H12.676V506.151H6.98335V500.459ZM6.98335 506.151H12.676V511.844H6.98335V506.151ZM6.98335 511.844H12.676V517.537H6.98335V511.844ZM1.29068 506.151H6.98335V511.844H1.29068V506.151ZM1.29068 511.844H6.98335V517.537H1.29068V511.844ZM1.29068 528.922H6.98335V534.615H1.29068V528.922ZM6.98335 528.922H12.676V534.615H6.98335V528.922ZM6.98335 534.615H12.676V540.307H6.98335V534.615ZM6.98335 540.307H12.676V546H6.98335V540.307ZM1.29068 540.307H6.98335V546H1.29068V540.307ZM1.29068 534.615H6.98335V540.307H1.29068V534.615ZM35.4467 517.537H41.1393V523.229H35.4467V517.537ZM58.2322 494.766H63.9248V500.459H58.2322V494.766ZM63.9248 494.766H69.6175V500.459H63.9248V494.766ZM63.9248 489.073H69.6175V494.766H63.9248V489.073ZM69.6175 494.766H75.3101V500.459H69.6175V494.766ZM69.6175 500.459H75.3101V506.151H69.6175V500.459ZM75.3101 500.459H81.0028V506.151H75.3101V500.459ZM63.9248 500.459H69.6175V506.151H63.9248V500.459ZM58.2322 500.459H63.9248V506.151H58.2322V500.459ZM52.5395 500.459H58.2322V506.151H52.5395V500.459ZM52.5395 506.151H58.2322V511.844H52.5395V506.151ZM46.8468 506.151H52.5395V511.844H46.8468V506.151ZM58.2322 506.151H63.9248V511.844H58.2322V506.151ZM52.5395 511.844H58.2322V517.537H52.5395V511.844ZM52.5395 517.537H58.2322V523.229H52.5395V517.537ZM52.5395 523.229H58.2322V528.922H52.5395V523.229ZM58.2322 523.229H63.9248V528.922H58.2322V523.229ZM63.9248 523.229H69.6175V528.922H63.9248V523.229ZM69.6175 523.229H75.3101V528.922H69.6175V523.229ZM75.3101 523.229H81.0028V528.922H75.3101V523.229ZM81.0028 523.229H86.6955V528.922H81.0028V523.229ZM81.0028 517.537H86.6955V523.229H81.0028V517.537ZM81.0028 511.844H86.6955V517.537H81.0028V511.844ZM81.0028 506.151H86.6955V511.844H81.0028V506.151ZM75.3101 506.151H81.0028V511.844H75.3101V506.151ZM69.6175 506.151H75.3101V511.844H69.6175V506.151ZM75.3101 511.844H81.0028V517.537H75.3101V511.844ZM75.3101 517.537H81.0028V523.229H75.3101V517.537ZM75.3101 528.922H81.0028V534.615H75.3101V528.922ZM81.0028 528.922H86.6955V534.615H81.0028V528.922ZM81.0028 534.615H86.6955V540.307H81.0028V534.615ZM81.0028 540.307H86.6955V546H81.0028V540.307ZM75.3101 540.307H81.0028V546H75.3101V540.307ZM75.3101 534.615H81.0028V540.307H75.3101V534.615ZM69.6175 528.922H75.3101V534.615H69.6175V528.922ZM63.9248 528.922H69.6175V534.615H63.9248V528.922ZM58.2322 528.922H63.9248V534.615H58.2322V528.922ZM52.5395 528.922H58.2322V534.615H52.5395V528.922ZM52.5395 534.615H58.2322V540.307H52.5395V534.615ZM52.5395 540.307H58.2322V546H52.5395V540.307ZM46.8468 540.307H52.5395V546H46.8468V540.307ZM46.8468 534.615H52.5395V540.307H46.8468V534.615ZM46.8468 528.922H52.5395V534.615H46.8468V528.922ZM46.8468 523.229H52.5395V528.922H46.8468V523.229ZM46.8468 517.537H52.5395V523.229H46.8468V517.537ZM46.8468 511.844H52.5395V517.537H46.8468V511.844ZM103.788 489.073H109.481V494.766H103.788V489.073ZM98.0956 489.073H103.788V494.766H98.0956V489.073ZM98.0956 494.766H103.788V500.459H98.0956V494.766ZM103.788 494.766H109.481V500.459H103.788V494.766ZM109.481 494.766H115.174V500.459H109.481V494.766ZM109.481 489.073H115.174V494.766H109.481V489.073ZM115.174 489.073H120.866V494.766H115.174V489.073ZM120.866 489.073H126.559V494.766H120.866V489.073ZM120.866 494.766H126.559V500.459H120.866V494.766ZM115.174 494.766H120.866V500.459H115.174V494.766ZM120.866 500.459H126.559V506.151H120.866V500.459ZM126.559 494.766H132.252V500.459H126.559V494.766ZM126.559 500.459H132.252V506.151H126.559V500.459ZM126.559 528.922H132.252V534.615H126.559V528.922ZM126.559 534.615H132.252V540.307H126.559V534.615ZM120.866 534.615H126.559V540.307H120.866V534.615ZM120.866 528.922H126.559V534.615H120.866V528.922ZM115.174 534.615H120.866V540.307H115.174V534.615ZM120.866 540.307H126.559V546H120.866V540.307ZM115.174 540.307H120.866V546H115.174V540.307ZM109.481 540.307H115.174V546H109.481V540.307ZM109.481 534.615H115.174V540.307H109.481V534.615ZM103.788 540.307H109.481V546H103.788V540.307ZM98.0956 540.307H103.788V546H98.0956V540.307ZM98.0956 534.615H103.788V540.307H98.0956V534.615ZM103.788 534.615H109.481V540.307H103.788V534.615ZM103.788 528.922H109.481V534.615H103.788V528.922ZM98.0956 528.922H103.788V534.615H98.0956V528.922ZM92.403 534.615H98.0956V540.307H92.403V534.615ZM92.403 528.922H98.0956V534.615H92.403V528.922ZM92.403 523.229H98.0956V528.922H92.403V523.229ZM92.403 517.537H98.0956V523.229H92.403V517.537ZM92.403 511.844H98.0956V517.537H92.403V511.844ZM92.403 506.151H98.0956V511.844H92.403V506.151ZM92.403 500.459H98.0956V506.151H92.403V500.459ZM98.0956 500.459H103.788V506.151H98.0956V500.459ZM92.403 494.766H98.0956V500.459H92.403V494.766ZM103.788 500.459H109.481V506.151H103.788V500.459ZM98.0956 506.151H103.788V511.844H98.0956V506.151ZM98.0956 511.844H103.788V517.537H98.0956V511.844ZM98.0956 517.537H103.788V523.229H98.0956V517.537ZM98.0956 523.229H103.788V528.922H98.0956V523.229ZM126.559 523.229H132.252V528.922H126.559V523.229ZM120.866 523.229H126.559V528.922H120.866V523.229ZM120.866 517.537H126.559V523.229H120.866V517.537ZM126.559 517.537H132.252V523.229H126.559V517.537ZM126.559 511.844H132.252V517.537H126.559V511.844ZM120.866 511.844H126.559V517.537H120.866V511.844ZM115.174 511.844H120.866V517.537H115.174V511.844ZM109.481 511.844H115.174V517.537H109.481V511.844ZM109.481 517.537H115.174V523.229H109.481V517.537ZM115.174 517.537H120.866V523.229H115.174V517.537ZM137.959 489.073H143.652V494.766H137.959V489.073ZM143.652 489.073H149.344V494.766H143.652V489.073ZM143.652 494.766H149.344V500.459H143.652V494.766ZM143.652 500.459H149.344V506.151H143.652V500.459ZM143.652 506.151H149.344V511.844H143.652V506.151ZM137.959 506.151H143.652V511.844H137.959V506.151ZM137.959 500.459H143.652V506.151H137.959V500.459ZM137.959 494.766H143.652V500.459H137.959V494.766ZM137.959 511.844H143.652V517.537H137.959V511.844ZM137.959 517.537H143.652V523.229H137.959V517.537ZM137.959 523.229H143.652V528.922H137.959V523.229ZM143.652 517.537H149.344V523.229H143.652V517.537ZM143.652 511.844H149.344V517.537H143.652V511.844ZM143.652 523.229H149.344V528.922H143.652V523.229ZM143.652 528.922H149.344V534.615H143.652V528.922ZM137.959 534.615H143.652V540.307H137.959V534.615ZM137.959 528.922H143.652V534.615H137.959V528.922ZM137.959 540.307H143.652V546H137.959V540.307ZM143.652 540.307H149.344V546H143.652V540.307ZM143.652 534.615H149.344V540.307H143.652V534.615ZM149.344 540.307H155.037V546H149.344V540.307ZM155.037 540.307H160.73V546H155.037V540.307ZM160.73 540.307H166.422V546H160.73V540.307ZM160.73 534.615H166.422V540.307H160.73V534.615ZM155.037 534.615H160.73V540.307H155.037V534.615ZM149.344 534.615H155.037V540.307H149.344V534.615ZM149.344 489.073H155.037V494.766H149.344V489.073ZM155.037 489.073H160.73V494.766H155.037V489.073ZM160.73 489.073H166.422V494.766H160.73V489.073ZM166.422 489.073H172.115V494.766H166.422V489.073ZM160.73 494.766H166.422V500.459H160.73V494.766ZM155.037 494.766H160.73V500.459H155.037V494.766ZM149.344 494.766H155.037V500.459H149.344V494.766ZM149.344 517.537H155.037V523.229H149.344V517.537ZM155.037 511.844H160.73V517.537H155.037V511.844ZM149.344 511.844H155.037V517.537H149.344V511.844ZM155.037 517.537H160.73V523.229H155.037V517.537ZM166.422 494.766H172.115V500.459H166.422V494.766ZM166.422 534.615H172.115V540.307H166.422V534.615ZM166.422 540.307H172.115V546H166.422V540.307ZM160.73 511.844H166.422V517.537H160.73V511.844ZM160.73 517.537H166.422V523.229H160.73V517.537ZM217.612 517.537H223.305V523.229H217.612V517.537ZM217.612 511.844H223.305V517.537H217.612V511.844ZM223.305 511.844H228.997V517.537H223.305V511.844ZM223.305 517.537H228.997V523.229H223.305V517.537ZM223.305 523.229H228.997V528.922H223.305V523.229ZM217.612 523.229H223.305V528.922H217.612V523.229ZM217.612 500.459H223.305V506.151H217.612V500.459ZM217.612 506.151H223.305V511.844H217.612V506.151ZM211.919 511.844H217.612V517.537H211.919V511.844ZM211.919 506.151H217.612V511.844H211.919V506.151ZM211.919 500.459H217.612V506.151H211.919V500.459ZM200.534 489.073H206.227V494.766H200.534V489.073ZM206.227 489.073H211.919V494.766H206.227V489.073ZM211.919 489.073H217.612V494.766H211.919V489.073ZM211.919 494.766H217.612V500.459H211.919V494.766ZM206.227 494.766H211.919V500.459H206.227V494.766ZM200.534 494.766H206.227V500.459H200.534V494.766ZM200.534 500.459H206.227V506.151H200.534V500.459ZM206.227 500.459H211.919V506.151H206.227V500.459ZM206.227 506.151H211.919V511.844H206.227V506.151ZM206.227 511.844H211.919V517.537H206.227V511.844ZM200.534 511.844H206.227V517.537H200.534V511.844ZM200.534 506.151H206.227V511.844H200.534V506.151ZM200.534 517.537H206.227V523.229H200.534V517.537ZM206.227 517.537H211.919V523.229H206.227V517.537ZM206.227 523.229H211.919V528.922H206.227V523.229ZM206.227 528.922H211.919V534.615H206.227V528.922ZM206.227 534.615H211.919V540.307H206.227V534.615ZM206.227 540.307H211.919V546H206.227V540.307ZM200.534 540.307H206.227V546H200.534V540.307ZM200.534 534.615H206.227V540.307H200.534V534.615ZM200.534 528.922H206.227V534.615H200.534V528.922ZM200.534 523.229H206.227V528.922H200.534V523.229ZM223.305 528.922H228.997V534.615H223.305V528.922ZM223.305 534.615H228.997V540.307H223.305V534.615ZM228.997 528.922H234.69V534.615H228.997V528.922ZM228.997 523.229H234.69V528.922H228.997V523.229ZM228.997 534.615H234.69V540.307H228.997V534.615ZM228.997 540.307H234.69V546H228.997V540.307ZM234.69 540.307H240.383V546H234.69V540.307ZM240.383 540.307H246.075V546H240.383V540.307ZM240.383 534.615H246.075V540.307H240.383V534.615ZM240.383 528.922H246.075V534.615H240.383V528.922ZM234.69 528.922H240.383V534.615H234.69V528.922ZM234.69 534.615H240.383V540.307H234.69V534.615ZM234.69 523.229H240.383V528.922H234.69V523.229ZM240.383 517.537H246.075V523.229H240.383V517.537ZM240.383 511.844H246.075V517.537H240.383V511.844ZM240.383 523.229H246.075V528.922H240.383V523.229ZM234.69 517.537H240.383V523.229H234.69V517.537ZM234.69 511.844H240.383V517.537H234.69V511.844ZM234.69 506.151H240.383V511.844H234.69V506.151ZM240.383 506.151H246.075V511.844H240.383V506.151ZM240.383 500.459H246.075V506.151H240.383V500.459ZM234.69 489.073H240.383V494.766H234.69V489.073ZM240.383 489.073H246.075V494.766H240.383V489.073ZM240.383 494.766H246.075V500.459H240.383V494.766ZM234.69 494.766H240.383V500.459H234.69V494.766ZM234.69 500.459H240.383V506.151H234.69V500.459ZM263.183 489.073H268.876V494.766H263.183V489.073ZM257.49 489.073H263.183V494.766H257.49V489.073ZM257.49 494.766H263.183V500.459H257.49V494.766ZM263.183 494.766H268.876V500.459H263.183V494.766ZM268.876 494.766H274.568V500.459H268.876V494.766ZM268.876 489.073H274.568V494.766H268.876V489.073ZM274.568 489.073H280.261V494.766H274.568V489.073ZM280.261 489.073H285.954V494.766H280.261V489.073ZM280.261 494.766H285.954V500.459H280.261V494.766ZM274.568 494.766H280.261V500.459H274.568V494.766ZM274.568 500.459H280.261V506.151H274.568V500.459ZM280.261 500.459H285.954V506.151H280.261V500.459ZM285.954 494.766H291.646V500.459H285.954V494.766ZM285.954 500.459H291.646V506.151H285.954V500.459ZM285.954 506.151H291.646V511.844H285.954V506.151ZM285.954 511.844H291.646V517.537H285.954V511.844ZM285.954 517.537H291.646V523.229H285.954V517.537ZM285.954 523.229H291.646V528.922H285.954V523.229ZM285.954 528.922H291.646V534.615H285.954V528.922ZM285.954 534.615H291.646V540.307H285.954V534.615ZM280.261 534.615H285.954V540.307H280.261V534.615ZM280.261 528.922H285.954V534.615H280.261V528.922ZM280.261 523.229H285.954V528.922H280.261V523.229ZM280.261 517.537H285.954V523.229H280.261V517.537ZM280.261 511.844H285.954V517.537H280.261V511.844ZM280.261 506.151H285.954V511.844H280.261V506.151ZM274.568 528.922H280.261V534.615H274.568V528.922ZM274.568 534.615H280.261V540.307H274.568V534.615ZM280.261 540.307H285.954V546H280.261V540.307ZM274.568 540.307H280.261V546H274.568V540.307ZM268.876 540.307H274.568V546H268.876V540.307ZM268.876 534.615H274.568V540.307H268.876V534.615ZM263.183 540.307H268.876V546H263.183V540.307ZM257.49 540.307H263.183V546H257.49V540.307ZM257.49 534.615H263.183V540.307H257.49V534.615ZM263.183 534.615H268.876V540.307H263.183V534.615ZM263.183 528.922H268.876V534.615H263.183V528.922ZM257.49 528.922H263.183V534.615H257.49V528.922ZM251.798 534.615H257.49V540.307H251.798V534.615ZM251.798 528.922H257.49V534.615H251.798V528.922ZM251.798 523.229H257.49V528.922H251.798V523.229ZM251.798 517.537H257.49V523.229H251.798V517.537ZM251.798 511.844H257.49V517.537H251.798V511.844ZM251.798 506.151H257.49V511.844H251.798V506.151ZM251.798 500.459H257.49V506.151H251.798V500.459ZM257.49 500.459H263.183V506.151H257.49V500.459ZM251.798 494.766H257.49V500.459H251.798V494.766ZM263.183 500.459H268.876V506.151H263.183V500.459ZM257.49 506.151H263.183V511.844H257.49V506.151ZM257.49 511.844H263.183V517.537H257.49V511.844ZM257.49 517.537H263.183V523.229H257.49V517.537ZM257.49 523.229H263.183V528.922H257.49V523.229ZM297.354 489.073H303.046V494.766H297.354V489.073ZM303.046 489.073H308.739V494.766H303.046V489.073ZM308.739 489.073H314.432V494.766H308.739V489.073ZM314.432 489.073H320.124V494.766H314.432V489.073ZM320.124 489.073H325.817V494.766H320.124V489.073ZM325.817 489.073H331.51V494.766H325.817V489.073ZM325.817 494.766H331.51V500.459H325.817V494.766ZM320.124 494.766H325.817V500.459H320.124V494.766ZM314.432 494.766H320.124V500.459H314.432V494.766ZM308.739 494.766H314.432V500.459H308.739V494.766ZM303.046 494.766H308.739V500.459H303.046V494.766ZM297.354 494.766H303.046V500.459H297.354V494.766ZM308.739 500.459H314.432V506.151H308.739V500.459ZM308.739 506.151H314.432V511.844H308.739V506.151ZM308.739 511.844H314.432V517.537H308.739V511.844ZM308.739 517.537H314.432V523.229H308.739V517.537ZM308.739 523.229H314.432V528.922H308.739V523.229ZM308.739 528.922H314.432V534.615H308.739V528.922ZM314.432 523.229H320.124V528.922H314.432V523.229ZM314.432 517.537H320.124V523.229H314.432V517.537ZM314.432 511.844H320.124V517.537H314.432V511.844ZM314.432 506.151H320.124V511.844H314.432V506.151ZM314.432 500.459H320.124V506.151H314.432V500.459ZM314.432 528.922H320.124V534.615H314.432V528.922ZM314.432 534.615H320.124V540.307H314.432V534.615ZM314.432 540.307H320.124V546H314.432V540.307ZM308.739 540.307H314.432V546H308.739V540.307ZM308.739 534.615H314.432V540.307H308.739V534.615ZM359.929 489.073H365.621V494.766H359.929V489.073ZM365.621 489.073H371.314V494.766H365.621V489.073ZM365.621 494.766H371.314V500.459H365.621V494.766ZM365.621 500.459H371.314V506.151H365.621V500.459ZM365.621 506.151H371.314V511.844H365.621V506.151ZM359.929 506.151H365.621V511.844H359.929V506.151ZM359.929 500.459H365.621V506.151H359.929V500.459ZM359.929 494.766H365.621V500.459H359.929V494.766ZM359.929 511.844H365.621V517.537H359.929V511.844ZM359.929 517.537H365.621V523.229H359.929V517.537ZM359.929 523.229H365.621V528.922H359.929V523.229ZM365.621 517.537H371.314V523.229H365.621V517.537ZM365.621 511.844H371.314V517.537H365.621V511.844ZM365.621 523.229H371.314V528.922H365.621V523.229ZM365.621 528.922H371.314V534.615H365.621V528.922ZM359.929 534.615H365.621V540.307H359.929V534.615ZM359.929 528.922H365.621V534.615H359.929V528.922ZM359.929 540.307H365.621V546H359.929V540.307ZM365.621 540.307H371.314V546H365.621V540.307ZM365.621 534.615H371.314V540.307H365.621V534.615ZM371.314 489.073H377.007V494.766H371.314V489.073ZM377.007 489.073H382.699V494.766H377.007V489.073ZM382.699 489.073H388.392V494.766H382.699V489.073ZM388.392 489.073H394.085V494.766H388.392V489.073ZM382.699 494.766H388.392V500.459H382.699V494.766ZM377.007 494.766H382.699V500.459H377.007V494.766ZM371.314 494.766H377.007V500.459H371.314V494.766ZM371.314 517.537H377.007V523.229H371.314V517.537ZM377.007 511.844H382.699V517.537H377.007V511.844ZM371.314 511.844H377.007V517.537H371.314V511.844ZM377.007 517.537H382.699V523.229H377.007V517.537ZM388.392 494.766H394.085V500.459H388.392V494.766ZM382.699 511.844H388.392V517.537H382.699V511.844ZM382.699 517.537H388.392V523.229H382.699V517.537ZM411.163 489.073H416.855V494.766H411.163V489.073ZM405.47 489.073H411.163V494.766H405.47V489.073ZM405.47 494.766H411.163V500.459H405.47V494.766ZM411.163 494.766H416.855V500.459H411.163V494.766ZM416.855 494.766H422.548V500.459H416.855V494.766ZM416.855 489.073H422.548V494.766H416.855V489.073ZM422.548 489.073H428.241V494.766H422.548V489.073ZM428.241 489.073H433.933V494.766H428.241V489.073ZM428.241 494.766H433.933V500.459H428.241V494.766ZM422.548 494.766H428.241V500.459H422.548V494.766ZM422.548 500.459H428.241V506.151H422.548V500.459ZM428.241 500.459H433.933V506.151H428.241V500.459ZM433.933 494.766H439.626V500.459H433.933V494.766ZM433.933 500.459H439.626V506.151H433.933V500.459ZM433.933 506.151H439.626V511.844H433.933V506.151ZM433.933 511.844H439.626V517.537H433.933V511.844ZM433.933 517.537H439.626V523.229H433.933V517.537ZM433.933 523.229H439.626V528.922H433.933V523.229ZM433.933 528.922H439.626V534.615H433.933V528.922ZM433.933 534.615H439.626V540.307H433.933V534.615ZM428.241 534.615H433.933V540.307H428.241V534.615ZM428.241 528.922H433.933V534.615H428.241V528.922ZM428.241 523.229H433.933V528.922H428.241V523.229ZM428.241 517.537H433.933V523.229H428.241V517.537ZM428.241 511.844H433.933V517.537H428.241V511.844ZM428.241 506.151H433.933V511.844H428.241V506.151ZM422.548 528.922H428.241V534.615H422.548V528.922ZM422.548 534.615H428.241V540.307H422.548V534.615ZM428.241 540.307H433.933V546H428.241V540.307ZM422.548 540.307H428.241V546H422.548V540.307ZM416.855 540.307H422.548V546H416.855V540.307ZM416.855 534.615H422.548V540.307H416.855V534.615ZM411.163 540.307H416.855V546H411.163V540.307ZM405.47 540.307H411.163V546H405.47V540.307ZM405.47 534.615H411.163V540.307H405.47V534.615ZM411.163 534.615H416.855V540.307H411.163V534.615ZM411.163 528.922H416.855V534.615H411.163V528.922ZM405.47 528.922H411.163V534.615H405.47V528.922ZM399.777 534.615H405.47V540.307H399.777V534.615ZM399.777 528.922H405.47V534.615H399.777V528.922ZM399.777 523.229H405.47V528.922H399.777V523.229ZM399.777 517.537H405.47V523.229H399.777V517.537ZM399.777 511.844H405.47V517.537H399.777V511.844ZM399.777 506.151H405.47V511.844H399.777V506.151ZM399.777 500.459H405.47V506.151H399.777V500.459ZM405.47 500.459H411.163V506.151H405.47V500.459ZM399.777 494.766H405.47V500.459H399.777V494.766ZM411.163 500.459H416.855V506.151H411.163V500.459ZM405.47 506.151H411.163V511.844H405.47V506.151ZM405.47 511.844H411.163V517.537H405.47V511.844ZM405.47 517.537H411.163V523.229H405.47V517.537ZM405.47 523.229H411.163V528.922H405.47V523.229ZM451.026 494.766H456.719V500.459H451.026V494.766ZM473.797 494.766H479.489V500.459H473.797V494.766ZM473.797 500.459H479.489V506.151H473.797V500.459ZM479.489 494.766H485.182V500.459H479.489V494.766ZM479.489 500.459H485.182V506.151H479.489V500.459ZM479.489 506.151H485.182V511.844H479.489V506.151ZM479.489 511.844H485.182V517.537H479.489V511.844ZM479.489 517.537H485.182V523.229H479.489V517.537ZM479.489 523.229H485.182V528.922H479.489V523.229ZM479.489 528.922H485.182V534.615H479.489V528.922ZM479.489 534.615H485.182V540.307H479.489V534.615ZM473.797 534.615H479.489V540.307H473.797V534.615ZM473.797 528.922H479.489V534.615H473.797V528.922ZM473.797 523.229H479.489V528.922H473.797V523.229ZM473.797 517.537H479.489V523.229H473.797V517.537ZM473.797 511.844H479.489V517.537H473.797V511.844ZM473.797 506.151H479.489V511.844H473.797V506.151ZM468.104 528.922H473.797V534.615H468.104V528.922ZM468.104 534.615H473.797V540.307H468.104V534.615ZM473.797 540.307H479.489V546H473.797V540.307ZM468.104 540.307H473.797V546H468.104V540.307ZM462.411 540.307H468.104V546H462.411V540.307ZM462.411 534.615H468.104V540.307H462.411V534.615ZM456.719 540.307H462.411V546H456.719V540.307ZM451.026 540.307H456.719V546H451.026V540.307ZM451.026 534.615H456.719V540.307H451.026V534.615ZM456.719 534.615H462.411V540.307H456.719V534.615ZM456.719 528.922H462.411V534.615H456.719V528.922ZM451.026 528.922H456.719V534.615H451.026V528.922ZM445.333 534.615H451.026V540.307H445.333V534.615ZM445.333 528.922H451.026V534.615H445.333V528.922ZM445.333 523.229H451.026V528.922H445.333V523.229ZM445.333 517.537H451.026V523.229H445.333V517.537ZM445.333 511.844H451.026V517.537H445.333V511.844ZM445.333 506.151H451.026V511.844H445.333V506.151ZM445.333 500.459H451.026V506.151H445.333V500.459ZM451.026 500.459H456.719V506.151H451.026V500.459ZM445.333 494.766H451.026V500.459H445.333V494.766ZM451.026 506.151H456.719V511.844H451.026V506.151ZM451.026 511.844H456.719V517.537H451.026V511.844ZM451.026 517.537H456.719V523.229H451.026V517.537ZM451.026 523.229H456.719V528.922H451.026V523.229ZM445.333 489.073H451.026V494.766H445.333V489.073ZM451.026 489.073H456.719V494.766H451.026V489.073ZM473.797 489.073H479.489V494.766H473.797V489.073ZM479.489 489.073H485.182V494.766H479.489V489.073ZM507.968 517.537H513.66V523.229H507.968V517.537ZM507.968 511.844H513.66V517.537H507.968V511.844ZM513.66 511.844H519.353V517.537H513.66V511.844ZM513.66 517.537H519.353V523.229H513.66V517.537ZM513.66 523.229H519.353V528.922H513.66V523.229ZM507.968 523.229H513.66V528.922H507.968V523.229ZM507.968 500.459H513.66V506.151H507.968V500.459ZM507.968 506.151H513.66V511.844H507.968V506.151ZM502.275 511.844H507.968V517.537H502.275V511.844ZM502.275 506.151H507.968V511.844H502.275V506.151ZM502.275 500.459H507.968V506.151H502.275V500.459ZM490.89 489.073H496.582V494.766H490.89V489.073ZM496.582 489.073H502.275V494.766H496.582V489.073ZM502.275 489.073H507.968V494.766H502.275V489.073ZM502.275 494.766H507.968V500.459H502.275V494.766ZM496.582 494.766H502.275V500.459H496.582V494.766ZM490.89 494.766H496.582V500.459H490.89V494.766ZM490.89 500.459H496.582V506.151H490.89V500.459ZM496.582 500.459H502.275V506.151H496.582V500.459ZM496.582 506.151H502.275V511.844H496.582V506.151ZM496.582 511.844H502.275V517.537H496.582V511.844ZM490.89 511.844H496.582V517.537H490.89V511.844ZM490.89 506.151H496.582V511.844H490.89V506.151ZM490.89 517.537H496.582V523.229H490.89V517.537ZM496.582 517.537H502.275V523.229H496.582V517.537ZM496.582 523.229H502.275V528.922H496.582V523.229ZM496.582 528.922H502.275V534.615H496.582V528.922ZM496.582 534.615H502.275V540.307H496.582V534.615ZM496.582 540.307H502.275V546H496.582V540.307ZM490.89 540.307H496.582V546H490.89V540.307ZM490.89 534.615H496.582V540.307H490.89V534.615ZM490.89 528.922H496.582V534.615H490.89V528.922ZM490.89 523.229H496.582V528.922H490.89V523.229ZM513.66 528.922H519.353V534.615H513.66V528.922ZM513.66 534.615H519.353V540.307H513.66V534.615ZM519.353 528.922H525.046V534.615H519.353V528.922ZM519.353 523.229H525.046V528.922H519.353V523.229ZM519.353 534.615H525.046V540.307H519.353V534.615ZM519.353 540.307H525.046V546H519.353V540.307ZM525.046 540.307H530.738V546H525.046V540.307ZM530.738 540.307H536.431V546H530.738V540.307ZM530.738 534.615H536.431V540.307H530.738V534.615ZM530.738 528.922H536.431V534.615H530.738V528.922ZM525.046 528.922H530.738V534.615H525.046V528.922ZM525.046 534.615H530.738V540.307H525.046V534.615ZM525.046 523.229H530.738V528.922H525.046V523.229ZM530.738 517.537H536.431V523.229H530.738V517.537ZM530.738 511.844H536.431V517.537H530.738V511.844ZM530.738 523.229H536.431V528.922H530.738V523.229ZM525.046 517.537H530.738V523.229H525.046V517.537ZM525.046 511.844H530.738V517.537H525.046V511.844ZM525.046 506.151H530.738V511.844H525.046V506.151ZM530.738 506.151H536.431V511.844H530.738V506.151ZM530.738 500.459H536.431V506.151H530.738V500.459ZM525.046 489.073H530.738V494.766H525.046V489.073ZM530.738 489.073H536.431V494.766H530.738V489.073ZM530.738 494.766H536.431V500.459H530.738V494.766ZM525.046 494.766H530.738V500.459H525.046V494.766ZM525.046 500.459H530.738V506.151H525.046V500.459ZM553.539 489.073H559.231V494.766H553.539V489.073ZM547.846 489.073H553.539V494.766H547.846V489.073ZM547.846 494.766H553.539V500.459H547.846V494.766ZM553.539 494.766H559.231V500.459H553.539V494.766ZM559.231 494.766H564.924V500.459H559.231V494.766ZM559.231 489.073H564.924V494.766H559.231V489.073ZM564.924 489.073H570.617V494.766H564.924V489.073ZM570.617 489.073H576.309V494.766H570.617V489.073ZM570.617 494.766H576.309V500.459H570.617V494.766ZM564.924 494.766H570.617V500.459H564.924V494.766ZM564.924 500.459H570.617V506.151H564.924V500.459ZM570.617 500.459H576.309V506.151H570.617V500.459ZM576.309 494.766H582.002V500.459H576.309V494.766ZM576.309 500.459H582.002V506.151H576.309V500.459ZM576.309 506.151H582.002V511.844H576.309V506.151ZM576.309 511.844H582.002V517.537H576.309V511.844ZM576.309 517.537H582.002V523.229H576.309V517.537ZM576.309 523.229H582.002V528.922H576.309V523.229ZM576.309 528.922H582.002V534.615H576.309V528.922ZM576.309 534.615H582.002V540.307H576.309V534.615ZM570.617 534.615H576.309V540.307H570.617V534.615ZM570.617 528.922H576.309V534.615H570.617V528.922ZM570.617 523.229H576.309V528.922H570.617V523.229ZM570.617 517.537H576.309V523.229H570.617V517.537ZM570.617 511.844H576.309V517.537H570.617V511.844ZM570.617 506.151H576.309V511.844H570.617V506.151ZM564.924 528.922H570.617V534.615H564.924V528.922ZM564.924 534.615H570.617V540.307H564.924V534.615ZM570.617 540.307H576.309V546H570.617V540.307ZM564.924 540.307H570.617V546H564.924V540.307ZM559.231 540.307H564.924V546H559.231V540.307ZM559.231 534.615H564.924V540.307H559.231V534.615ZM553.539 540.307H559.231V546H553.539V540.307ZM547.846 540.307H553.539V546H547.846V540.307ZM547.846 534.615H553.539V540.307H547.846V534.615ZM553.539 534.615H559.231V540.307H553.539V534.615ZM547.846 528.922H553.539V534.615H547.846V528.922ZM542.153 534.615H547.846V540.307H542.153V534.615ZM542.153 528.922H547.846V534.615H542.153V528.922ZM542.153 523.229H547.846V528.922H542.153V523.229ZM542.153 517.537H547.846V523.229H542.153V517.537ZM542.153 511.844H547.846V517.537H542.153V511.844ZM542.153 506.151H547.846V511.844H542.153V506.151ZM542.153 500.459H547.846V506.151H542.153V500.459ZM547.846 500.459H553.539V506.151H547.846V500.459ZM542.153 494.766H547.846V500.459H542.153V494.766ZM547.846 506.151H553.539V511.844H547.846V506.151ZM547.846 511.844H553.539V517.537H547.846V511.844ZM547.846 517.537H553.539V523.229H547.846V517.537ZM547.846 523.229H553.539V528.922H547.846V523.229ZM542.153 540.307H547.846V546H542.153V540.307ZM542.153 489.073H547.846V494.766H542.153V489.073Z" fill="#B7B7B7"/>
</svg>
